<?xml version="1.0" encoding="UTF-8"?>
<svg id="Layer_1" xmlns="http://www.w3.org/2000/svg" version="1.1" viewBox="0 0 138.35 29.6">
  <!-- Generator: Adobe Illustrator 29.6.1, SVG Export Plug-In . SVG Version: 2.1.1 Build 9)  -->
  <defs>
    <style>
      .st0 {
        fill: #fff;
      }
    </style>
  </defs>
  <path class="st0" d="M4.42,19.49V4.92h4.68v4.03c0,.78-.02,1.45-.05,1.99h.05v9.55h-.26c0,.67-.04,1.29-.12,1.85h-4.39c.06-1.22.1-2.17.1-2.86ZM9.94,21.89c-.7-.54-1.14-1.31-1.32-2.3v-7.3c.18-1.01.62-1.79,1.32-2.34.7-.55,1.56-.83,2.57-.83s1.86.25,2.64.76c.78.5,1.41,1.27,1.87,2.29s.7,2.28.7,3.77-.23,2.72-.7,3.73-1.09,1.78-1.87,2.28c-.78.5-1.66.76-2.64.76s-1.86-.27-2.57-.82ZM12.48,17.85c.34-.42.5-1.06.5-1.91s-.17-1.49-.5-1.93c-.34-.44-.82-.66-1.44-.66s-1.1.22-1.44.66-.5,1.08-.5,1.93.17,1.48.5,1.91.82.64,1.44.64,1.1-.21,1.44-.64Z"/>
  <path class="st0" d="M20.33,21.64c-.77-.71-1.15-1.62-1.15-2.72s.36-2,1.09-2.75,1.9-1.26,3.52-1.55l3.22-.58v2.86l-2.14.36c-.4.06-.7.19-.9.38s-.3.43-.3.72.11.52.32.68c.22.17.51.25.88.25s.68-.09.98-.26c.3-.18.55-.45.73-.82.18-.37.28-.84.28-1.42h.5v3.31c-.19.8-.64,1.43-1.33,1.9-.7.46-1.54.7-2.53.7-1.34,0-2.4-.36-3.17-1.07ZM28.18,21.87c-.51-.43-.77-1-.77-1.7v-.05h-.55v-5.23c0-.7-.14-1.22-.41-1.54-.27-.32-.7-.48-1.3-.48-1.07,0-1.68.49-1.82,1.46l-4.1-.89c.27-1.28.94-2.32,1.99-3.12,1.06-.8,2.47-1.2,4.25-1.2,1.92,0,3.38.54,4.37,1.62.99,1.08,1.49,2.49,1.49,4.24v3.31c0,.26.07.45.2.58.14.13.33.19.59.19.19-.02.38-.03.58-.05v2.86c-.67.43-1.46.65-2.38.65s-1.62-.22-2.14-.65Z"/>
  <path class="st0" d="M34.2,19.49V4.92h4.68v4.03c0,.78-.02,1.45-.05,1.99h.05v9.55h-.26c0,.67-.04,1.29-.12,1.85h-4.39c.06-1.22.1-2.17.1-2.86ZM39.72,21.89c-.7-.54-1.14-1.31-1.32-2.3v-7.3c.18-1.01.62-1.79,1.32-2.34.7-.55,1.56-.83,2.57-.83s1.86.25,2.64.76c.78.5,1.41,1.27,1.87,2.29s.7,2.28.7,3.77-.23,2.72-.7,3.73-1.09,1.78-1.87,2.28c-.78.5-1.66.76-2.64.76s-1.86-.27-2.57-.82ZM42.27,17.85c.34-.42.5-1.06.5-1.91s-.17-1.49-.5-1.93c-.34-.44-.82-.66-1.44-.66s-1.1.22-1.44.66-.5,1.08-.5,1.93.17,1.48.5,1.91.82.64,1.44.64,1.1-.21,1.44-.64Z"/>
  <path class="st0" d="M49.39,26.79v-3.46c.53.08,1.04.12,1.54.12.42,0,.74-.09.96-.28.22-.18.34-.44.34-.76,0-.21-.04-.44-.11-.7-.07-.26-.22-.68-.44-1.27l-4.08-10.97h5.16l2.09,7.06c.26.87.42,2.58.5,5.14h-.6c.19-2.67.38-4.38.58-5.14l1.78-7.06h4.87l-4.56,13.56c-.51,1.5-1.19,2.59-2.03,3.26-.84.67-1.9,1.01-3.18,1.01-1.04,0-1.98-.18-2.81-.53Z"/>
  <path class="st0" d="M62.93,9.48h4.39c.08.56.12,1.18.12,1.85h.26v9.55h-.05c.03.43.05,1.13.05,2.09v4.06h-4.68v-14.69c0-.66-.03-1.61-.1-2.86ZM68.55,21.89c-.7-.54-1.14-1.31-1.32-2.3v-7.3c.18-1.01.62-1.79,1.32-2.34.7-.55,1.56-.83,2.57-.83s1.86.25,2.64.76c.78.5,1.41,1.27,1.87,2.29.46,1.02.7,2.28.7,3.77s-.23,2.72-.7,3.73c-.46,1.02-1.09,1.78-1.87,2.28-.78.5-1.66.76-2.64.76s-1.86-.27-2.57-.82ZM71.09,17.85c.34-.42.5-1.06.5-1.91s-.17-1.49-.5-1.93-.82-.66-1.44-.66-1.1.22-1.44.66-.5,1.08-.5,1.93.17,1.48.5,1.91.82.64,1.44.64,1.1-.21,1.44-.64Z"/>
  <path class="st0" d="M78.94,21.64c-.77-.71-1.15-1.62-1.15-2.72s.36-2,1.09-2.75c.73-.74,1.9-1.26,3.52-1.55l3.22-.58v2.86l-2.14.36c-.4.06-.7.19-.9.38s-.3.43-.3.72.11.52.32.68.51.25.88.25.68-.09.98-.26c.3-.18.55-.45.73-.82.18-.37.28-.84.28-1.42h.5v3.31c-.19.8-.64,1.43-1.33,1.9-.7.46-1.54.7-2.53.7-1.34,0-2.4-.36-3.17-1.07ZM86.78,21.87c-.51-.43-.77-1-.77-1.7v-.05h-.55v-5.23c0-.7-.14-1.22-.41-1.54-.27-.32-.7-.48-1.3-.48-1.07,0-1.68.49-1.82,1.46l-4.1-.89c.27-1.28.94-2.32,1.99-3.12,1.06-.8,2.47-1.2,4.25-1.2,1.92,0,3.38.54,4.37,1.62s1.49,2.49,1.49,4.24v3.31c0,.26.07.45.2.58.14.13.33.19.59.19.19-.02.38-.03.58-.05v2.86c-.67.43-1.46.65-2.38.65s-1.62-.22-2.14-.65Z"/>
  <path class="st0" d="M92.71,9.48h4.32c.08.56.12,1.25.12,2.06h.34v10.8h-4.68v-10.01c0-1.02-.03-1.98-.1-2.86ZM100.28,13.91c-.25-.28-.6-.42-1.07-.42-.51,0-.93.17-1.25.5s-.48.83-.48,1.49h-.65v-3.17c.32-1.04.83-1.83,1.54-2.38.7-.54,1.57-.82,2.59-.82,1.31,0,2.37.42,3.17,1.26.8.84,1.2,2.13,1.2,3.88v8.09h-4.68v-7.27c0-.5-.12-.88-.37-1.16Z"/>
  <path class="st0" d="M109.73,21.95c-.78-.5-1.41-1.26-1.87-2.28s-.7-2.26-.7-3.73.23-2.74.7-3.77,1.09-1.79,1.87-2.29c.78-.5,1.66-.76,2.64-.76s1.86.28,2.57.83c.7.55,1.14,1.33,1.32,2.34v7.3c-.18.99-.62,1.76-1.32,2.3s-1.56.82-2.57.82-1.86-.25-2.64-.76ZM115.27,17.85c.34-.42.5-1.06.5-1.91s-.17-1.49-.5-1.93-.82-.66-1.44-.66-1.1.22-1.44.66-.5,1.08-.5,1.93.17,1.48.5,1.91.82.64,1.44.64,1.1-.21,1.44-.64ZM116.04,20.48h-.26v-9.53h.05c-.03-.7-.05-1.37-.05-1.99v-4.03h4.68v14.57c0,.86.04,1.82.12,2.86h-4.42c-.08-.56-.12-1.18-.12-1.87Z"/>
  <path class="st0" d="M123.7,21.64c-.77-.71-1.15-1.62-1.15-2.72s.36-2,1.09-2.75c.73-.74,1.9-1.26,3.52-1.55l3.22-.58v2.86l-2.14.36c-.4.06-.7.19-.9.38s-.3.43-.3.72.11.52.32.68.51.25.88.25.68-.09.98-.26c.3-.18.55-.45.73-.82.18-.37.28-.84.28-1.42h.5v3.31c-.19.8-.64,1.43-1.33,1.9-.7.46-1.54.7-2.53.7-1.34,0-2.4-.36-3.17-1.07ZM131.54,21.87c-.51-.43-.77-1-.77-1.7v-.05h-.55v-5.23c0-.7-.14-1.22-.41-1.54-.27-.32-.7-.48-1.3-.48-1.07,0-1.68.49-1.82,1.46l-4.1-.89c.27-1.28.94-2.32,1.99-3.12,1.06-.8,2.47-1.2,4.25-1.2,1.92,0,3.38.54,4.37,1.62s1.49,2.49,1.49,4.24v3.31c0,.26.07.45.2.58.14.13.33.19.59.19.19-.02.38-.03.58-.05v2.86c-.67.43-1.46.65-2.38.65s-1.62-.22-2.14-.65Z"/>
</svg>